<svg width="105" height="48" viewBox="0 0 105 48" fill="none" xmlns="http://www.w3.org/2000/svg">
<path d="M0.0909092 5.45454V0.454544H35V5.45454H20.3636V47H14.7273V5.45454H0.0909092ZM52.5455 47.7273C49.1818 47.7273 46.2803 46.9848 43.8409 45.5C41.4167 44 39.5455 41.9091 38.2273 39.2273C36.9242 36.5303 36.2727 33.3939 36.2727 29.8182C36.2727 26.2424 36.9242 23.0909 38.2273 20.3636C39.5455 17.6212 41.3788 15.4848 43.7273 13.9545C46.0909 12.4091 48.8485 11.6364 52 11.6364C53.8182 11.6364 55.6136 11.9394 57.3864 12.5455C59.1591 13.1515 60.7727 14.1364 62.2273 15.5C63.6818 16.8485 64.8409 18.6364 65.7045 20.8636C66.5682 23.0909 67 25.8333 67 29.0909V31.3636H40.0909V26.7273H61.5455C61.5455 24.7576 61.1515 23 60.3636 21.4545C59.5909 19.9091 58.4848 18.6894 57.0455 17.7955C55.6212 16.9015 53.9394 16.4545 52 16.4545C49.8636 16.4545 48.0152 16.9848 46.4545 18.0455C44.9091 19.0909 43.7197 20.4545 42.8864 22.1364C42.053 23.8182 41.6364 25.6212 41.6364 27.5455V30.6364C41.6364 33.2727 42.0909 35.5076 43 37.3409C43.9242 39.1591 45.2045 40.5455 46.8409 41.5C48.4773 42.4394 50.3788 42.9091 52.5455 42.9091C53.9545 42.9091 55.2273 42.7121 56.3636 42.3182C57.5152 41.9091 58.5076 41.303 59.3409 40.5C60.1742 39.6818 60.8182 38.6667 61.2727 37.4545L66.4545 38.9091C65.9091 40.6667 64.9924 42.2121 63.7045 43.5455C62.4167 44.8636 60.8258 45.8939 58.9318 46.6364C57.0379 47.3636 54.9091 47.7273 52.5455 47.7273ZM89.7955 47.7273C86.4318 47.7273 83.5303 46.9848 81.0909 45.5C78.6667 44 76.7955 41.9091 75.4773 39.2273C74.1742 36.5303 73.5227 33.3939 73.5227 29.8182C73.5227 26.2424 74.1742 23.0909 75.4773 20.3636C76.7955 17.6212 78.6288 15.4848 80.9773 13.9545C83.3409 12.4091 86.0985 11.6364 89.25 11.6364C91.0682 11.6364 92.8636 11.9394 94.6364 12.5455C96.4091 13.1515 98.0227 14.1364 99.4773 15.5C100.932 16.8485 102.091 18.6364 102.955 20.8636C103.818 23.0909 104.25 25.8333 104.25 29.0909V31.3636H77.3409V26.7273H98.7955C98.7955 24.7576 98.4015 23 97.6136 21.4545C96.8409 19.9091 95.7348 18.6894 94.2955 17.7955C92.8712 16.9015 91.1894 16.4545 89.25 16.4545C87.1136 16.4545 85.2652 16.9848 83.7045 18.0455C82.1591 19.0909 80.9697 20.4545 80.1364 22.1364C79.303 23.8182 78.8864 25.6212 78.8864 27.5455V30.6364C78.8864 33.2727 79.3409 35.5076 80.25 37.3409C81.1742 39.1591 82.4545 40.5455 84.0909 41.5C85.7273 42.4394 87.6288 42.9091 89.7955 42.9091C91.2045 42.9091 92.4773 42.7121 93.6136 42.3182C94.7652 41.9091 95.7576 41.303 96.5909 40.5C97.4242 39.6818 98.0682 38.6667 98.5227 37.4545L103.705 38.9091C103.159 40.6667 102.242 42.2121 100.955 43.5455C99.6667 44.8636 98.0758 45.8939 96.1818 46.6364C94.2879 47.3636 92.1591 47.7273 89.7955 47.7273Z" fill="#01D293"/>
</svg>
